<?xml version="1.0" encoding="UTF-8" standalone="no"?>
<!DOCTYPE svg PUBLIC "-//W3C//DTD SVG 1.1//EN"
 "http://www.w3.org/Graphics/SVG/1.1/DTD/svg11.dtd">
<!-- Generated by graphviz version 14.1.2 (20260124.0452)
 -->
<!-- Title: G Pages: 1 -->
<svg width="333pt" height="188pt"
 viewBox="0.00 0.00 333.00 188.00" xmlns="http://www.w3.org/2000/svg" xmlns:xlink="http://www.w3.org/1999/xlink">
<g id="graph0" class="graph" transform="scale(1 1) rotate(0) translate(4 184)">
<title>G</title><style>.edge>path:hover{stroke-width:8}</style>
<polygon fill="white" stroke="none" points="-4,4 -4,-184 328.93,-184 328.93,4 -4,4"/>
<!-- src_app -->
<g id="node1" class="node">
<title>src_app</title><style>.edge>path:hover{stroke-width:8}</style>
<ellipse fill="#8b4b4b" stroke="black" cx="115.52" cy="-18" rx="29.01" ry="18"/>
<text xml:space="preserve" text-anchor="middle" x="115.52" y="-14.5" font-family="Helvetica,sans-Serif" font-size="10.00" fill="#ffffff">src.app</text>
</g>
<!-- src_clean -->
<g id="node2" class="node">
<title>src_clean</title><style>.edge>path:hover{stroke-width:8}</style>
<ellipse fill="#c24747" stroke="black" cx="33.52" cy="-162" rx="33.52" ry="18"/>
<text xml:space="preserve" text-anchor="middle" x="33.52" y="-158.5" font-family="Helvetica,sans-Serif" font-size="10.00" fill="#ffffff">src.clean</text>
</g>
<!-- src_clean&#45;&gt;src_app -->
<g id="edge1" class="edge">
<title>src_clean&#45;&gt;src_app</title><style>.edge>path:hover{stroke-width:8}</style>
<path fill="none" stroke="black" d="M24.81,-144.37C16.25,-125.52 6.25,-94.5 19.52,-72 32.21,-50.5 57.1,-37.12 78.35,-29.18"/>
<polygon fill="#c24747" stroke="black" points="79.29,-32.56 87.61,-26 77.02,-25.94 79.29,-32.56"/>
</g>
<!-- src_scrape -->
<g id="node6" class="node">
<title>src_scrape</title><style>.edge>path:hover{stroke-width:8}</style>
<ellipse fill="#b34c4c" stroke="black" cx="65.52" cy="-90" rx="37.13" ry="18"/>
<text xml:space="preserve" text-anchor="middle" x="65.52" y="-86.5" font-family="Helvetica,sans-Serif" font-size="10.00" fill="#ffffff">src.scrape</text>
</g>
<!-- src_clean&#45;&gt;src_scrape -->
<g id="edge2" class="edge">
<title>src_clean&#45;&gt;src_scrape</title><style>.edge>path:hover{stroke-width:8}</style>
<path fill="none" stroke="black" d="M41.27,-144.05C44.85,-136.23 49.18,-126.75 53.19,-117.98"/>
<polygon fill="#c24747" stroke="black" points="56.25,-119.72 57.22,-109.17 49.88,-116.81 56.25,-119.72"/>
</g>
<!-- src_db_config -->
<g id="node3" class="node">
<title>src_db_config</title><style>.edge>path:hover{stroke-width:8}</style>
<ellipse fill="#c24747" stroke="black" cx="220.52" cy="-162" rx="44.8" ry="18"/>
<text xml:space="preserve" text-anchor="middle" x="220.52" y="-158.5" font-family="Helvetica,sans-Serif" font-size="10.00" fill="#ffffff">src.db_config</text>
</g>
<!-- src_load_data -->
<g id="node4" class="node">
<title>src_load_data</title><style>.edge>path:hover{stroke-width:8}</style>
<ellipse fill="#b34c4c" stroke="black" cx="165.52" cy="-90" rx="44.8" ry="18"/>
<text xml:space="preserve" text-anchor="middle" x="165.52" y="-86.5" font-family="Helvetica,sans-Serif" font-size="10.00" fill="#ffffff">src.load_data</text>
</g>
<!-- src_db_config&#45;&gt;src_load_data -->
<g id="edge3" class="edge">
<title>src_db_config&#45;&gt;src_load_data</title><style>.edge>path:hover{stroke-width:8}</style>
<path fill="none" stroke="black" d="M207.49,-144.41C200.91,-136.04 192.8,-125.71 185.46,-116.37"/>
<polygon fill="#c24747" stroke="black" points="188.33,-114.36 179.4,-108.66 182.83,-118.69 188.33,-114.36"/>
</g>
<!-- src_query_data -->
<g id="node5" class="node">
<title>src_query_data</title><style>.edge>path:hover{stroke-width:8}</style>
<ellipse fill="#b34c4c" stroke="black" cx="276.52" cy="-90" rx="48.41" ry="18"/>
<text xml:space="preserve" text-anchor="middle" x="276.52" y="-86.5" font-family="Helvetica,sans-Serif" font-size="10.00" fill="#ffffff">src.query_data</text>
</g>
<!-- src_db_config&#45;&gt;src_query_data -->
<g id="edge4" class="edge">
<title>src_db_config&#45;&gt;src_query_data</title><style>.edge>path:hover{stroke-width:8}</style>
<path fill="none" stroke="black" d="M233.8,-144.41C240.49,-136.04 248.76,-125.71 256.23,-116.37"/>
<polygon fill="#c24747" stroke="black" points="258.89,-118.65 262.4,-108.65 253.42,-114.27 258.89,-118.65"/>
</g>
<!-- src_load_data&#45;&gt;src_app -->
<g id="edge5" class="edge">
<title>src_load_data&#45;&gt;src_app</title><style>.edge>path:hover{stroke-width:8}</style>
<path fill="none" stroke="black" d="M153.68,-72.41C147.67,-64.01 140.26,-53.63 133.57,-44.26"/>
<polygon fill="#b34c4c" stroke="black" points="136.48,-42.32 127.82,-36.22 130.79,-46.39 136.48,-42.32"/>
</g>
<!-- src_query_data&#45;&gt;src_app -->
<g id="edge6" class="edge">
<title>src_query_data&#45;&gt;src_app</title><style>.edge>path:hover{stroke-width:8}</style>
<path fill="none" stroke="black" d="M245.86,-75.67C218.19,-63.64 177.58,-45.98 149.06,-33.58"/>
<polygon fill="#b34c4c" stroke="black" points="150.72,-30.49 140.16,-29.71 147.93,-36.91 150.72,-30.49"/>
</g>
<!-- src_scrape&#45;&gt;src_app -->
<g id="edge7" class="edge">
<title>src_scrape&#45;&gt;src_app</title><style>.edge>path:hover{stroke-width:8}</style>
<path fill="none" stroke="black" d="M77.12,-72.76C83.27,-64.16 90.94,-53.41 97.82,-43.79"/>
<polygon fill="#b34c4c" stroke="black" points="100.49,-46.07 103.46,-35.9 94.79,-42 100.49,-46.07"/>
</g>
</g>
</svg>
